<?xml version="1.0" encoding="utf-8"?><!DOCTYPE svg PUBLIC "-//W3C//DTD SVG 1.1//EN" "http://www.w3.org/Graphics/SVG/1.1/DTD/svg11.dtd"><svg version="1.1" xmlns="http://www.w3.org/2000/svg" width="160" height="160" viewBox="0 0 160 160"><g transform="scale(0.303,0.303)"><g><rect fill="#ffffff" width="528" height="528" /></g><g transform="translate(0,0)"><g transform="translate(0,0)"><g transform="translate(0,0) scale(1,1)"><g transform="scale(2.9464285714285716,2.9464285714285716) translate(24.599999999999994,19.599999999999994)"><g transform="translate(0.000000,140.000000) scale(0.100000,-0.100000)" fill="#000000" stroke="none">
<path d="M620 1379 c-19 -10 -39 -19 -43 -21 -12 -5 19 -60 48 -88 30 -28 34 -74 8 -85 -10 -4 -65 -20 -121 -35 -57 -15 -108 -32 -112 -36 -14 -14 13 -58 42 -68 22 -8 40 -3 104 29 63 30 83 36 103 28 22 -8 33 -4 70 24 24 18 48 33 53 33 6 0 17 8 26 19 10 10 35 23 57 28 59 14 175 16 175 4 0 -6 12 -11 26 -11 l25 0 -21 -30 c-12 -17 -45 -46 -73 -65 -53 -36 -51 -45 6 -21 44 18 152 13 176 -8 30 -27 74 -30 95 -7 27 30 14 64 -49 128 -69 71 -91 75 -241 52 -66 -10 -122 -19 -126 -19 -4 0 -10 17 -14 37 -9 46 -61 102 -112 120 -47 16 -59 15 -102 -8z"/>
<path d="M275 1130 c-12 -61 -25 -98 -41 -117 -21 -25 -22 -29 -8 -62 8 -20 24 -44 36 -54 20 -17 22 -17 40 0 31 28 55 83 63 141 3 28 10 66 15 82 5 17 6 38 3 46 -4 12 -72 54 -86 54 -3 0 -12 -40 -22 -90z"/>
<path d="M745 1080 c-8 -9 -46 -30 -83 -45 -37 -15 -83 -33 -102 -41 -19 -8 -45 -16 -56 -16 -21 -2 -21 -3 -7 -45 8 -24 24 -49 35 -57 21 -15 49 -7 168 47 98 45 132 57 156 57 15 0 25 8 30 22 8 26 -26 57 -87 81 -35 14 -39 13 -54 -3z"/>
<path d="M785 911 c-2 -5 -48 -34 -100 -65 -91 -54 -125 -64 -125 -34 0 14 -53 48 -75 48 -21 0 -30 -21 -30 -75 -1 -38 -13 -74 -49 -150 -46 -99 -167 -288 -225 -354 -16 -19 -35 -46 -43 -59 -7 -14 -40 -52 -73 -83 -58 -56 -73 -89 -23 -49 14 10 28 17 30 14 3 -2 11 2 18 11 7 8 17 15 22 15 12 0 49 33 132 116 100 99 149 160 193 241 l41 76 26 -26 c30 -30 34 -81 15 -213 -6 -42 -11 -85 -12 -95 -1 -10 -6 -20 -13 -23 -11 -4 -11 -30 1 -93 6 -34 80 -117 95 -108 6 3 10 23 10 43 0 28 8 45 34 72 19 19 47 53 62 76 16 23 52 69 81 102 28 34 56 69 61 78 8 14 27 7 150 -55 77 -40 170 -92 205 -116 l64 -44 23 21 c18 17 21 28 17 59 -8 59 -52 106 -117 124 -151 42 -360 115 -360 125 0 15 92 110 106 110 20 0 26 18 13 42 -15 30 -12 27 -47 37 -26 8 -36 5 -59 -15 -15 -13 -22 -24 -15 -24 20 0 14 -14 -29 -73 l-41 -56 -52 21 c-28 11 -57 23 -65 26 -19 7 16 -47 47 -74 l24 -20 -36 -34 c-61 -58 -42 -69 30 -19 44 30 46 30 82 16 20 -8 38 -19 39 -24 2 -5 -23 -24 -54 -43 -32 -19 -77 -50 -100 -68 -24 -17 -46 -32 -49 -32 -4 0 -4 24 -1 53 13 106 12 212 0 225 -7 7 -14 12 -15 10 -2 -1 -11 3 -21 8 -26 15 -13 23 128 82 141 60 204 76 239 62 13 -5 41 -6 61 -3 35 6 37 7 31 37 -4 17 -13 37 -20 44 -19 20 -123 26 -133 8 -12 -20 -360 -162 -371 -151 -2 2 11 36 29 74 33 68 34 70 56 56 31 -20 44 -19 153 15 52 16 103 30 113 30 9 0 18 3 18 8 9 58 9 58 -42 79 -27 12 -51 18 -54 14z"/>
</g>
</g></g></g></g></g></svg>