<?xml version="1.0" encoding="utf-8"?><!DOCTYPE svg PUBLIC "-//W3C//DTD SVG 1.1//EN" "http://www.w3.org/Graphics/SVG/1.1/DTD/svg11.dtd"><svg version="1.1" xmlns="http://www.w3.org/2000/svg" width="160" height="160" viewBox="0 0 160 160"><g transform="scale(0.303,0.303)"><g><rect fill="#ffffff" width="528" height="528" /></g><g transform="translate(0,0)"><g transform="translate(0,0)">
<g transform="translate(0,0) scale(1,1)">

<path fill="#000000" d=" M 330.07 65.05 C 332.11 63.03 335.20 65.00 337.66 65.35 C 343.46 67.19 349.20 69.25 354.94 71.27 C 358.09 73.96 360.98 77.51 362.31 81.54 C 363.60 89.00 360.86 96.21 359.61 103.47 C 356.28 118.76 357.35 134.53 355.11 149.95 C 356.16 160.07 357.54 170.26 356.48 180.46 C 354.20 196.27 357.73 212.43 354.34 228.13 C 368.02 224.68 381.81 221.56 395.28 217.32 C 406.75 212.93 419.62 214.04 430.74 208.57 C 434.06 206.48 437.17 204.07 440.27 201.67 C 445.03 205.19 449.36 209.23 454.04 212.86 C 458.19 215.65 463.07 217.17 467.13 220.11 C 471.05 223.35 474.68 226.92 478.39 230.39 C 477.71 236.74 475.53 242.77 472.77 248.48 C 464.06 248.09 456.14 244.29 447.93 241.90 C 437.00 241.77 426.13 241.03 415.29 239.73 C 410.55 238.51 407.23 242.22 403.53 244.27 C 400.62 242.73 397.79 240.54 394.37 240.51 C 383.56 240.42 372.74 240.53 361.96 241.11 C 359.09 241.25 356.56 242.72 354.01 243.87 C 353.54 259.51 355.90 275.85 350.98 291.00 C 349.15 295.93 341.29 302.52 336.96 296.06 C 332.07 291.71 328.69 285.82 326.28 279.81 C 326.57 273.56 331.25 268.41 331.93 262.18 C 332.43 256.82 332.95 251.46 333.96 246.17 C 326.97 244.20 320.38 248.18 313.66 249.56 C 296.30 253.35 278.46 254.42 261.31 259.22 C 242.53 262.08 225.69 273.18 206.29 272.60 C 204.50 272.35 203.20 270.89 202.91 269.15 C 201.72 263.61 201.38 257.93 200.85 252.30 C 214.18 250.64 227.20 247.27 240.23 244.13 C 251.03 240.08 262.74 241.64 273.99 240.66 C 278.09 240.46 281.39 235.92 280.05 231.96 C 275.21 210.99 274.69 189.41 275.02 167.99 C 275.70 153.49 270.41 139.64 270.54 125.14 C 269.39 118.90 262.37 119.17 257.39 118.36 C 258.60 115.14 259.82 111.82 262.05 109.15 C 270.50 115.45 281.50 116.50 290.74 121.18 C 294.76 128.63 296.75 137.16 300.65 144.75 C 298.51 148.66 296.33 152.57 294.39 156.60 C 305.14 160.78 313.92 146.56 324.61 151.27 C 327.27 154.33 329.11 158.01 331.21 161.47 C 323.43 166.03 316.40 172.10 307.15 173.55 C 302.85 173.97 299.80 177.59 298.68 181.47 C 296.95 199.93 297.47 218.46 299.43 236.85 C 308.26 235.18 317.19 234.26 326.08 233.02 C 331.50 232.38 336.10 228.15 338.46 223.39 C 341.94 216.50 336.47 209.27 335.61 202.42 C 332.21 185.80 335.04 168.62 332.03 151.95 C 330.60 142.35 332.25 132.62 332.31 122.99 C 333.10 114.03 330.28 105.02 332.21 96.14 C 331.64 95.12 331.08 94.11 330.52 93.10 C 319.71 96.98 312.64 106.59 303.84 113.45 C 297.58 108.41 296.76 99.84 296.58 92.36 C 297.77 87.35 303.49 86.22 307.60 84.44 C 313.30 82.71 317.90 78.86 322.77 75.64 C 326.37 73.00 326.92 68.05 330.07 65.05 Z"/>
<path fill="#000000" d=" M 134.87 77.06 C 139.26 75.00 143.90 73.50 148.21 71.29 C 153.26 75.30 159.76 78.12 162.99 84.00 C 165.28 87.72 167.53 91.53 168.91 95.70 C 168.90 99.73 166.68 103.56 167.09 107.65 C 168.36 120.91 165.59 134.23 167.15 147.47 C 168.11 154.34 167.53 161.23 166.30 168.02 C 174.10 164.72 180.91 156.61 190.15 158.74 C 198.79 161.31 206.99 166.22 212.74 173.25 C 214.63 176.17 214.24 179.88 214.55 183.20 C 200.69 192.80 183.52 195.11 169.36 204.16 C 174.67 210.29 178.15 217.74 180.43 225.47 C 181.63 228.55 182.18 232.15 179.54 234.78 C 175.27 241.02 170.05 246.80 166.96 253.77 C 165.41 261.19 166.83 268.74 167.17 276.21 C 168.48 274.79 169.77 273.36 171.06 271.92 C 177.74 275.65 185.36 278.58 189.81 285.16 C 195.70 295.28 196.31 307.58 195.41 318.96 C 194.63 321.61 192.83 323.82 191.58 326.25 C 182.54 324.24 175.86 315.32 166.13 316.47 C 165.07 322.60 161.97 328.44 162.24 334.78 C 162.31 341.63 162.79 348.49 162.25 355.33 C 160.43 372.36 161.24 389.53 160.19 406.62 C 159.15 418.93 161.37 431.29 160.24 443.60 C 157.26 454.78 149.68 463.91 141.43 471.69 C 134.25 458.78 133.70 443.41 135.19 429.04 C 135.31 419.85 143.22 412.22 141.29 402.84 C 140.50 398.79 142.27 394.94 142.83 391.00 C 143.83 356.53 149.82 322.12 145.98 287.60 C 138.27 296.71 132.06 307.03 123.61 315.52 C 117.72 323.27 111.73 330.95 104.82 337.84 C 97.72 344.87 93.61 354.43 85.89 360.89 C 79.02 367.11 72.48 373.80 64.34 378.40 C 58.46 383.13 51.86 387.10 44.32 388.39 C 46.34 381.81 50.49 376.24 53.18 369.96 C 57.20 361.78 64.73 356.43 70.80 349.99 C 74.40 342.85 79.08 336.37 84.15 330.20 C 92.91 316.26 103.15 303.22 110.50 288.42 C 119.45 271.00 130.71 254.66 137.11 236.03 C 139.92 228.47 144.78 221.23 144.50 212.85 C 128.27 224.45 109.80 232.33 93.14 243.25 C 88.08 246.01 87.46 252.36 84.63 256.84 C 83.75 259.64 80.47 261.85 77.61 260.47 C 67.90 256.06 63.13 246.21 60.05 236.62 C 55.92 230.22 55.15 222.77 54.69 215.38 C 67.23 214.60 79.95 212.22 90.89 205.77 C 110.10 197.63 129.02 188.35 145.70 175.64 C 146.50 161.42 147.24 147.09 145.16 132.94 C 143.86 123.73 144.64 114.11 141.34 105.28 C 140.07 97.99 134.71 92.62 131.95 85.99 C 130.32 82.85 132.11 78.89 134.87 77.06 Z"/>
<path fill="#000000" d=" M 287.30 257.22 C 288.47 256.88 289.65 256.55 290.84 256.22 C 296.47 263.82 302.74 270.97 310.38 276.62 C 309.83 280.84 310.13 286.33 306.14 289.11 C 290.77 299.94 273.37 307.75 255.22 312.57 C 250.45 314.22 246.94 318.26 242.23 320.03 C 234.80 322.62 226.88 323.46 219.54 326.30 C 213.18 328.25 206.93 330.66 200.40 332.02 C 208.65 321.53 220.27 314.63 231.14 307.20 C 243.74 300.85 254.47 291.69 266.07 283.83 C 274.13 275.96 285.57 269.44 287.30 257.22 Z"/>
<path fill="#000000" d=" M 392.80 303.44 C 400.84 302.20 408.43 298.24 416.72 298.60 C 423.92 301.73 431.82 304.59 437.29 310.45 C 439.41 315.81 442.13 321.10 443.50 326.72 C 440.73 333.07 435.89 338.31 432.18 344.14 C 425.43 353.33 421.85 364.54 414.36 373.23 C 410.71 378.54 406.84 383.72 402.23 388.25 C 391.32 401.63 382.55 416.58 372.87 430.84 C 365.60 442.16 353.59 449.09 345.82 459.95 C 334.02 470.53 319.72 477.85 307.75 488.25 C 301.81 484.62 294.80 480.97 292.56 473.89 C 293.44 469.10 296.02 464.77 296.87 459.96 C 299.49 447.98 290.96 438.47 285.73 428.64 C 278.62 428.36 271.68 426.93 265.11 424.25 C 249.84 435.94 233.96 447.29 215.88 454.20 C 212.07 455.97 208.32 457.90 204.27 459.08 C 207.89 451.82 214.69 446.92 220.01 441.00 C 224.25 435.94 231.03 434.30 235.58 429.59 C 243.49 422.27 251.03 414.38 260.19 408.60 C 263.51 406.51 267.61 405.34 270.08 402.10 C 276.05 395.08 282.27 388.14 290.07 383.09 C 308.73 370.36 324.13 353.45 336.92 334.96 C 341.69 336.97 347.43 339.84 348.52 345.43 C 350.71 352.54 346.34 359.03 342.54 364.58 C 338.35 368.74 333.63 372.32 329.37 376.40 C 325.32 380.29 319.74 381.92 315.39 385.39 C 306.31 392.67 297.33 400.08 288.06 407.12 C 285.03 409.37 282.46 412.31 281.25 415.96 C 289.16 419.83 295.60 425.97 302.91 430.71 C 311.84 432.73 320.86 434.50 328.80 439.38 C 332.88 435.28 336.74 430.88 341.45 427.49 C 346.60 424.25 348.45 417.95 353.12 414.18 C 364.28 405.20 373.33 394.03 381.10 382.06 C 387.78 373.84 390.32 363.42 395.39 354.30 C 399.67 347.10 399.77 338.24 404.04 331.02 C 406.58 327.08 403.94 322.14 404.07 317.96 C 388.25 321.93 372.56 326.41 356.89 330.91 C 353.55 322.49 351.34 313.33 353.20 304.28 C 366.01 309.26 379.76 304.84 392.80 303.44 Z"/>
<path fill="#000000" d=" M 274.59 340.60 C 292.20 333.27 302.58 316.57 315.35 303.37 C 319.37 308.19 323.23 313.20 326.33 318.68 C 318.18 326.14 310.81 334.65 300.95 339.95 C 290.83 345.20 283.90 354.87 273.73 360.02 C 260.86 368.62 247.90 377.12 235.51 386.40 C 229.37 390.59 222.38 393.25 215.90 396.85 C 211.54 399.30 206.87 401.25 201.93 402.18 C 201.96 394.84 207.12 389.45 210.18 383.25 C 216.84 381.89 222.73 378.29 227.45 373.49 C 234.91 368.34 241.99 362.68 249.23 357.23 C 254.01 353.40 260.22 352.24 265.54 349.40 C 268.87 346.80 270.38 342.17 274.59 340.60 Z"/>
</g>
</g></g></g></svg>